<?xml version="1.0" encoding="UTF-8" standalone="no"?>
<!-- Created with Inkscape (http://www.inkscape.org/) -->

<svg
   xmlns:dc="http://purl.org/dc/elements/1.1/"
   xmlns:cc="http://creativecommons.org/ns#"
   xmlns:rdf="http://www.w3.org/1999/02/22-rdf-syntax-ns#"
   xmlns:svg="http://www.w3.org/2000/svg"
   xmlns="http://www.w3.org/2000/svg"
   xmlns:sodipodi="http://sodipodi.sourceforge.net/DTD/sodipodi-0.dtd"
   xmlns:inkscape="http://www.inkscape.org/namespaces/inkscape"
   width="30"
   height="30"
   id="svg3268"
   version="1.1"
   inkscape:version="0.48.3.1 r9886"
   sodipodi:docname="Nuovo documento 6">
  <defs
     id="defs3270" />
  <sodipodi:namedview
     id="base"
     pagecolor="#ffffff"
     bordercolor="#666666"
     borderopacity="1.0"
     inkscape:pageopacity="0.0"
     inkscape:pageshadow="2"
     inkscape:zoom="7.9195959"
     inkscape:cx="32.891152"
     inkscape:cy="22.219001"
     inkscape:document-units="px"
     inkscape:current-layer="layer1"
     showgrid="false"
     inkscape:window-width="1366"
     inkscape:window-height="692"
     inkscape:window-x="0"
     inkscape:window-y="24"
     inkscape:window-maximized="1" />
  <metadata
     id="metadata3273">
    <rdf:RDF>
      <cc:Work
         rdf:about="">
        <dc:format>image/svg+xml</dc:format>
        <dc:type
           rdf:resource="http://purl.org/dc/dcmitype/StillImage" />
        <dc:title></dc:title>
      </cc:Work>
    </rdf:RDF>
  </metadata>
  <g
     inkscape:label="Livello 1"
     inkscape:groupmode="layer"
     id="layer1"
     transform="translate(0,-1022.3622)">
    <g
       transform="matrix(0.15957447,0,0,0.15957447,-6.3591414,957.13977)"
       id="g4187">
      <g
         transform="matrix(0.69150273,0.72627308,-0.72627308,0.69150273,148.70597,273.7577)"
         style="fill:#777f74;fill-opacity:1"
         id="g4656-9-74">
        <path
           inkscape:connector-curvature="0"
           style="fill:#777f74;fill-opacity:1;stroke:none"
           d="m 129.72126,69.220585 c -1.126,16.87572 -7.81095,30.1381 1,60.687495 11.74379,40.71819 22.43568,66.6234 34.71875,99.43751 14.30187,38.2073 75.02151,15.54169 56.3125,-24.96875 -8.71077,-18.86136 -28.67966,-23.38164 -45.1875,-11.4375 L 129.72126,69.220585 z m 28.15625,102.125005 c 4.00246,0 7.25,3.18437 7.25,7.09375 0,3.90938 -3.24754,7.0625 -7.25,7.0625 -4.00246,0 -7.25,-3.15312 -7.25,-7.0625 0,-3.90938 3.24754,-7.09375 7.25,-7.09375 z m 36.84375,30.25 c 8.88541,0 16.09375,7.20834 16.09375,16.09375 0,8.88541 -7.20834,16.0625 -16.09375,16.0625 -8.88541,0 -16.09375,-7.17709 -16.09375,-16.0625 0,-8.88541 7.20834,-16.09375 16.09375,-16.09375 z"
           id="path2989-3-3-0-5" />
        <g
           style="fill:#777f74;fill-opacity:1"
           transform="translate(-2.8975898,11.692785)"
           id="g4625-5-1-61">
          <path
             id="path2987-0-7-9"
             d="m 144.4626,162.37154 -6.75,18.875 c -23.92085,-16.57815 -54.319055,6.73373 -48.187495,30.65625 9.74849,38.03407 52.292935,30.46067 60.843745,1.8125 1.69891,-5.69194 4.64309,-11.60614 6.21875,-18.65625 l -12.125,-32.6875 z m -25.09375,27.65625 c 8.88541,0 16.09375,7.17709 16.09375,16.0625 0,8.88541 -7.20834,16.09375 -16.09375,16.09375 -8.88541,0 -16.09375,-7.20834 -16.09375,-16.09375 0,-8.88541 7.20834,-16.0625 16.09375,-16.0625 z"
             style="fill:#777f74;fill-opacity:1;stroke:none"
             inkscape:connector-curvature="0" />
          <path
             sodipodi:nodetypes="cccc"
             inkscape:connector-curvature="0"
             id="path2991-5-1-59"
             d="m 161.18896,125.1401 11.01016,28.73731 c 21.61351,-53.83641 16.7441,-71.371177 15.70081,-94.998517 z"
             style="fill:#777f74;fill-opacity:1;stroke:none" />
        </g>
      </g>
      <path
         id="path2989-3-1-9"
         d="m 190.60491,409.68144 c -13.03507,10.85185 -27.28982,15.16771 -43.38422,42.69184 -21.45167,36.68599 -32.87244,62.36474 -48.21067,93.97665 -17.85915,36.80753 40.59008,65.23329 57.07437,23.63233 7.67498,-19.36912 -2.85059,-36.99778 -22.94052,-40.72758 l 57.46104,-119.57324 z m -54.7005,91.06889 c 2.76766,2.90687 2.70064,7.46747 -0.13864,10.17084 -2.83927,2.70333 -7.375,2.52513 -10.1427,-0.38176 -2.76773,-2.90689 -2.72337,-7.44591 0.11588,-10.14924 2.83927,-2.70333 7.39771,-2.54673 10.16546,0.36016 z m 3.50776,47.67659 c 6.14427,6.45323 5.89364,16.67303 -0.55958,22.81732 -6.45323,6.14429 -16.65035,5.87204 -22.79464,-0.58121 -6.14427,-6.45323 -5.91634,-16.65142 0.53689,-22.7957 6.45323,-6.14427 16.67306,-5.89364 22.81733,0.55959 z"
         style="fill:#5e4b64;fill-opacity:1;stroke:none"
         inkscape:connector-curvature="0" />
      <path
         id="path2987-9-4"
         d="m 122.64966,490.78295 -18.37604,8.14977 c -4.50107,-28.83691 -42.4523,-34.79408 -55.5866,-13.7984 -20.88201,33.38073 14.03795,59.04259 40.75725,45.44252 5.3087,-2.70212 11.63994,-4.65352 17.84982,-8.38434 l 15.35557,-31.40955 z m -37.43838,0.89945 c 6.14429,6.45325 5.91635,16.65144 -0.53688,22.79573 -6.45325,6.14428 -16.67305,5.89364 -22.81733,-0.55959 -6.1443,-6.45323 -5.89366,-16.67305 0.55958,-22.81733 6.45323,-6.14428 16.65035,-5.87204 22.79463,0.58119 z"
         style="fill:#c7aa58;fill-opacity:1;stroke:none"
         inkscape:connector-curvature="0" />
      <path
         sodipodi:nodetypes="cccc"
         inkscape:connector-curvature="0"
         id="path2991-2-4"
         d="m 161.25619,477.18521 -13.25758,27.86831 c 54.04571,-21.53071 63.41351,-37.19257 79.85201,-54.28866 z"
         style="fill:#c7aa58;fill-opacity:1;stroke:none" />
    </g>
  </g>
</svg>
