<?xml version="1.0" encoding="UTF-8" standalone="no"?>
<!-- Created with Inkscape (http://www.inkscape.org/) -->

<svg
   xmlns:dc="http://purl.org/dc/elements/1.1/"
   xmlns:cc="http://creativecommons.org/ns#"
   xmlns:rdf="http://www.w3.org/1999/02/22-rdf-syntax-ns#"
   xmlns:svg="http://www.w3.org/2000/svg"
   xmlns="http://www.w3.org/2000/svg"
   version="1.1"
   width="240"
   height="80"
   id="svg3052">
  <defs
     id="defs3054" />
  <metadata
     id="metadata3057">
    <rdf:RDF>
      <cc:Work
         rdf:about="">
        <dc:format>image/svg+xml</dc:format>
        <dc:type
           rdf:resource="http://purl.org/dc/dcmitype/StillImage" />
        <dc:title></dc:title>
      </cc:Work>
    </rdf:RDF>
  </metadata>
  <g
     transform="translate(0,-972.36218)"
     id="layer1">
    <text
       x="91.926735"
       y="1013.002"
       transform="scale(1.002005,0.997999)"
       id="text81"
       style="font-size:17.37422752px;font-style:normal;font-variant:normal;font-weight:normal;font-stretch:normal;font-family:Sansation;-inkscape-font-specification:Sansation">
      <tspan
         x="91.926735"
         y="1013.002"
         id="tspan83"
         style="font-size:33.80619049px;font-style:normal;font-variant:normal;font-weight:normal;font-stretch:normal;fill:#2b2b2b;font-family:Sansation;-inkscape-font-specification:Sansation">PDF</tspan>
      <tspan
         x="156.41991"
         y="1013.002"
         id="tspan85"
         style="font-size:33.80619049px;font-style:normal;font-variant:normal;font-weight:bold;font-stretch:normal;fill:#2b2b2b;font-family:Sansation;-inkscape-font-specification:Sansation Bold">SAM</tspan>
    </text>
    <text
       x="95.156227"
       y="1033.2268"
       transform="scale(1.002005,0.997999)"
       id="text87"
       style="font-size:16.25214195px;font-style:normal;font-variant:normal;font-weight:normal;font-stretch:normal;fill:#2b2b2b;font-family:Sansation;-inkscape-font-specification:Sansation">
      <tspan
         id="tspan3028"
         style="font-style:italic;-inkscape-font-specification:Sansation Italic">pdf split and merge</tspan>
    </text>
    <g
       transform="matrix(1.4343011,0,0,-1.4429785,-4.3633991,945.45584)"
       id="g4151">
      <path
         d="m 30.950984,-18.646392 c -5.3,0 -10.253,-1.485 -14.467,-4.061 -0.074,-0.045 -0.146,-0.093 -0.22,-0.139 19.42,-5.238 25.018,-14.206 25.704,-22.763 0.397,-4.955 -2.568,-7.454 -2.568,-7.454 9.194,0.829 19.103,9.878 19.103,9.878 0.035,0.06 -0.035,-0.062 0,0 -1.709,13.729 -12.911,24.539 -27.552,24.539"
         id="path94-4"
         style="fill:#fbb03b;fill-opacity:1;fill-rule:nonzero;stroke:none" />
      <path
         d="m 6.8196841,-60.470592 c 2.6499998,-4.59 6.4119999,-8.138 10.7499999,-10.498 0.076,-0.042 0.154,-0.08 0.23,-0.121 -5.173,19.436 -0.205,28.768 6.861,33.64 4.094,2.822 7.74,1.504 7.74,1.504 -5.314,7.548 -18.105,11.605 -18.105,11.605 -0.071,0 0.07,0 0,0 -11.0369999,-8.345 -14.79599994,-23.451 -7.4759999,-36.13"
         id="path98-6"
         style="fill:#fbb03b;fill-opacity:1;fill-rule:nonzero;stroke:none" />
      <path
         d="m 55.093584,-60.220592 c 2.65,4.589 3.841,9.621 3.716,14.559 -9.6e-4,0.087 -0.008,0.172 -0.01,0.259 -14.246,-14.198 -24.811,-14.562 -32.564,-10.878 -4.491,2.133 -5.172,5.951 -5.172,5.951 -3.88,-8.377 -0.998,-21.482 -0.998,-21.482 0.035,-0.061 -0.035,0.061 0,0 12.745,-5.386 27.708,-1.089 35.028,11.591"
         id="path102-4"
         style="fill:#fbb03b;fill-opacity:1;fill-rule:nonzero;stroke:none" />
      <path
         d="m 29.824814,-45.544153 c 0.498363,0.629266 1.413364,0.735013 2.042612,0.236656 0.630144,-0.498823 0.735477,-1.414693 0.237084,-2.043958 -0.498388,-0.629238 -1.414695,-0.735467 -2.043498,-0.236197 -0.629252,0.498376 -0.735012,1.413365 -0.236198,2.043499 m 2.272438,-7.725881 c 4.094811,-1.338849 5.656761,0.0325 5.656761,0.0325 -2.30416,2.224235 -2.835544,2.813838 -2.29608,4.51947 1.075838,3.413184 1.143344,4.891382 0.728893,6.643324 -0.991783,4.192418 -2.850786,4.886005 -2.850786,4.886005 -0.814083,-3.094718 -0.960311,-3.784767 -2.768492,-4.235029 -3.473257,-0.890785 -4.748425,-1.481241 -6.078558,-2.67738 -3.203382,-2.880685 -2.79998,-4.939389 -2.79998,-4.939389 3.069946,0.90301 3.820239,1.033899 5.035723,-0.256937 1.774086,-1.908829 3.672239,-3.416634 5.372517,-3.97256 z"
         id="path126-6-1"
         style="fill:#009245;fill-opacity:1;fill-rule:nonzero;stroke:none" />
    </g>
  </g>
</svg>
