<?xml version="1.0" encoding="UTF-8" standalone="no"?>
<!-- Created with Inkscape (http://www.inkscape.org/) -->

<svg
   xmlns:dc="http://purl.org/dc/elements/1.1/"
   xmlns:cc="http://creativecommons.org/ns#"
   xmlns:rdf="http://www.w3.org/1999/02/22-rdf-syntax-ns#"
   xmlns:svg="http://www.w3.org/2000/svg"
   xmlns="http://www.w3.org/2000/svg"
   xmlns:sodipodi="http://sodipodi.sourceforge.net/DTD/sodipodi-0.dtd"
   xmlns:inkscape="http://www.inkscape.org/namespaces/inkscape"
   width="30"
   height="30"
   id="svg3137"
   version="1.1"
   inkscape:version="0.48.3.1 r9886"
   sodipodi:docname="Nuovo documento 2">
  <defs
     id="defs3139" />
  <sodipodi:namedview
     id="base"
     pagecolor="#ffffff"
     bordercolor="#666666"
     borderopacity="1.0"
     inkscape:pageopacity="0.0"
     inkscape:pageshadow="2"
     inkscape:zoom="12.384681"
     inkscape:cx="29.877385"
     inkscape:cy="8.6870255"
     inkscape:document-units="px"
     inkscape:current-layer="layer1"
     showgrid="false"
     inkscape:window-width="1366"
     inkscape:window-height="692"
     inkscape:window-x="0"
     inkscape:window-y="24"
     inkscape:window-maximized="1" />
  <metadata
     id="metadata3142">
    <rdf:RDF>
      <cc:Work
         rdf:about="">
        <dc:format>image/svg+xml</dc:format>
        <dc:type
           rdf:resource="http://purl.org/dc/dcmitype/StillImage" />
        <dc:title></dc:title>
      </cc:Work>
    </rdf:RDF>
  </metadata>
  <g
     inkscape:label="Livello 1"
     inkscape:groupmode="layer"
     id="layer1"
     transform="translate(0,-1022.3622)">
    <g
       transform="matrix(0.15789476,0,0,0.15789476,-7.8489226,987.836)"
       id="g4197">
      <path
         inkscape:connector-curvature="0"
         id="path3104-2-5-8"
         d="m 196.11979,241.69598 c -7.17475,0.0987 -14.21051,2.73535 -20.17166,8.86043 l -22.73544,23.37637 c -13.10157,-8.34891 -29.38281,-10.00769 -41.36116,2.29994 l -53.80343,55.2739 c -29.34726,30.15429 25.92675,83.95761 55.2739,53.80353 l 22.73544,-23.37644 c 13.10157,8.34891 29.38291,10.00767 41.36116,-2.29994 l 53.80352,-55.2739 c 23.386,-24.02916 -6.9555,-63.0514 -35.10233,-62.66389 z m 0.0755,26.09108 c 14.40426,-0.6603 24.85366,16.89578 10.18006,31.97293 l -34.23513,35.17772 c -5.60909,5.76336 -11.66502,7.83663 -17.00441,7.4277 l 11.98975,-12.32926 c 11.97061,-12.29977 9.85596,-28.53242 1.16888,-41.3988 l 12.97016,-13.34721 c 4.89118,-5.02569 10.12929,-7.28294 14.93069,-7.50308 z m -64.13434,25.67638 c 0.7173,-0.033 1.41627,-0.0173 2.11146,0.0378 l -12.02758,12.32916 c -11.97051,12.29977 -9.85587,28.53243 -1.16879,41.3988 l -12.97016,13.34721 c -19.56492,20.10284 -44.6756,-4.32928 -25.11075,-24.43212 l 34.23512,-35.17771 c 4.89114,-5.02565 10.12931,-7.28296 14.93069,-7.50308 z m 17.19297,14.70447 c 0.56587,5.33467 -1.39141,11.45469 -7.01293,17.23073 l -2.22447,2.2622 c -0.55308,-5.32593 1.40439,-11.43029 7.01293,-17.19299 l 2.22447,-2.29994 z"
         style="fill:#bda876;fill-opacity:1;stroke:none;display:inline" />
      <path
         inkscape:connector-curvature="0"
         id="path3104-9-0"
         d="m 58.16311,324.04943 c -29.34726,30.1542 25.93548,83.95736 55.28253,53.80327 l 53.80327,-55.28265 c 29.34714,-30.15419 -25.93539,-83.95744 -55.28265,-53.80327 l -53.80315,55.28265 z m 24.8594,4.62221 34.23842,-35.17991 c 19.56485,-20.10272 44.6933,4.35338 25.12846,24.456 l -34.23831,35.17991 c -19.56496,20.10284 -44.69342,-4.35327 -25.12857,-24.456 z"
         style="fill:#8f5c43;fill-opacity:1;stroke:none;display:inline" />
      <path
         sodipodi:nodetypes="ssssccssssccs"
         inkscape:connector-curvature="0"
         id="path3104-5-0-0"
         d="m 122.28666,298.38299 c -29.34714,30.15419 25.93539,83.95735 55.28265,53.80327 l 53.80311,-55.28275 c 29.3473,-30.15419 -25.9354,-83.95736 -55.28249,-53.80321 l -22.79312,23.41982 c 5.99111,3.87349 11.01683,8.76475 15.07721,14.67357 l 13.01047,-13.36829 c 19.56493,-20.10284 44.69343,4.35317 25.12853,24.456 l -34.23838,35.17991 c -19.56485,20.10262 -44.6933,-4.35338 -25.12846,-24.4561 l 2.24994,-2.31177 c -0.75915,-7.03857 -6.15132,-13.81559 -15.07709,-14.67369 z"
         style="fill:#5ea97e;fill-opacity:1;stroke:none;display:inline" />
    </g>
  </g>
</svg>
