<?xml version="1.0" encoding="UTF-8" standalone="no"?>
<!-- Created with Inkscape (http://www.inkscape.org/) -->

<svg
   xmlns:dc="http://purl.org/dc/elements/1.1/"
   xmlns:cc="http://creativecommons.org/ns#"
   xmlns:rdf="http://www.w3.org/1999/02/22-rdf-syntax-ns#"
   xmlns:svg="http://www.w3.org/2000/svg"
   xmlns="http://www.w3.org/2000/svg"
   xmlns:sodipodi="http://sodipodi.sourceforge.net/DTD/sodipodi-0.dtd"
   xmlns:inkscape="http://www.inkscape.org/namespaces/inkscape"
   width="30"
   height="30"
   id="svg3425"
   version="1.1"
   inkscape:version="0.48.3.1 r9886"
   sodipodi:docname="Nuovo documento 12">
  <defs
     id="defs3427" />
  <sodipodi:namedview
     id="base"
     pagecolor="#ffffff"
     bordercolor="#666666"
     borderopacity="1.0"
     inkscape:pageopacity="0.0"
     inkscape:pageshadow="2"
     inkscape:zoom="9.9042587"
     inkscape:cx="22.304937"
     inkscape:cy="9.0418296"
     inkscape:document-units="px"
     inkscape:current-layer="layer1"
     showgrid="false"
     inkscape:window-width="1366"
     inkscape:window-height="692"
     inkscape:window-x="0"
     inkscape:window-y="24"
     inkscape:window-maximized="1" />
  <metadata
     id="metadata3430">
    <rdf:RDF>
      <cc:Work
         rdf:about="">
        <dc:format>image/svg+xml</dc:format>
        <dc:type
           rdf:resource="http://purl.org/dc/dcmitype/StillImage" />
        <dc:title></dc:title>
      </cc:Work>
    </rdf:RDF>
  </metadata>
  <g
     inkscape:label="Livello 1"
     inkscape:groupmode="layer"
     id="layer1"
     transform="translate(0,-1022.3622)">
    <g
       transform="matrix(0.15789467,0,0,0.15789337,-85.97254,956.88662)"
       id="g4202">
      <rect
         y="428.3783"
         x="607.55334"
         height="88.099937"
         width="70.101021"
         id="rect4247-4-9"
         style="fill:#a1c8a6;fill-opacity:1;fill-rule:evenodd;stroke:none" />
      <rect
         y="546.31854"
         x="630.76245"
         height="23.682779"
         width="20.840845"
         id="rect4249-8-2"
         style="fill:#a1c8a6;fill-opacity:1;fill-rule:evenodd;stroke:none" />
      <rect
         y="532.58252"
         x="657.28711"
         height="23.682779"
         width="20.840845"
         id="rect4249-4-2-3"
         style="fill:#a1c8a6;fill-opacity:1;fill-rule:evenodd;stroke:none" />
      <rect
         y="519.79382"
         x="683.81189"
         height="23.682779"
         width="20.840845"
         id="rect4249-45-5-6"
         style="fill:#a1c8a6;fill-opacity:1;fill-rule:evenodd;stroke:none" />
      <rect
         y="506.0578"
         x="710.33655"
         height="23.682779"
         width="20.840845"
         id="rect4249-5-3-3"
         style="fill:#a1c8a6;fill-opacity:1;fill-rule:evenodd;stroke:none" />
      <path
         id="path2989-3-3-0-4-9"
         d="m 642.82332,477.76565 c -8.6437,7.19604 -18.0963,10.05797 -28.7688,28.30972 -14.225,24.3271 -21.7983,41.35514 -31.9693,62.31756 -11.8428,24.40771 26.916,43.25731 37.847,15.67101 5.0894,-12.844 -1.8903,-24.53387 -15.2123,-27.00717 l 38.1034,-79.29112 z m -36.2728,60.38937 c 1.8353,1.9276 1.7908,4.95182 -0.092,6.74446 -1.8827,1.79264 -4.8904,1.67446 -6.7258,-0.25314 -1.8353,-1.9276 -1.8059,-4.93749 0.077,-6.73013 1.8828,-1.79264 4.9055,-1.68879 6.7409,0.23881 z m 2.326,31.61519 c 4.0744,4.27926 3.9082,11.05619 -0.371,15.13063 -4.2793,4.0743 -11.0412,3.8938 -15.1156,-0.3854 -4.0743,-4.27931 -3.9232,-11.04192 0.3561,-15.1163 4.2792,-4.07439 11.0561,-3.90818 15.1305,0.37107 z"
         style="fill:#a1c8a6;fill-opacity:1;stroke:none"
         inkscape:connector-curvature="0" />
      <g
         id="g4625-5-1-3-9"
         transform="matrix(0.45854776,0.4816046,-0.4816046,0.45854776,609.71692,387.51656)"
         style="fill:#a1c8a6;fill-opacity:1">
        <path
           inkscape:connector-curvature="0"
           style="fill:#a1c8a6;fill-opacity:1;stroke:none"
           d="m 144.4626,162.37154 -6.75,18.875 c -23.92085,-16.57815 -54.319055,6.73373 -48.187495,30.65625 9.74849,38.03407 52.292935,30.46067 60.843745,1.8125 1.69891,-5.69194 4.64309,-11.60614 6.21875,-18.65625 l -12.125,-32.6875 z m -25.09375,27.65625 c 8.88541,0 16.09375,7.17709 16.09375,16.0625 0,8.88541 -7.20834,16.09375 -16.09375,16.09375 -8.88541,0 -16.09375,-7.20834 -16.09375,-16.09375 0,-8.88541 7.20834,-16.0625 16.09375,-16.0625 z"
           id="path2987-0-7-7-2" />
        <path
           style="fill:#a1c8a6;fill-opacity:1;stroke:none"
           d="m 161.18896,125.1401 11.01016,28.73731 c 21.61351,-53.83641 16.7441,-71.371177 15.70081,-94.998517 z"
           id="path2991-5-1-5-9"
           inkscape:connector-curvature="0"
           sodipodi:nodetypes="cccc" />
      </g>
      <path
         id="path2989-3-1-0-7"
         d="m 645.78712,473.65714 c -8.6438,7.19606 -18.0964,10.05798 -28.7689,28.30972 -14.2249,24.32713 -21.7983,41.35517 -31.9693,62.31759 -11.8427,24.40777 26.916,43.25737 37.847,15.67101 5.0894,-12.844 -1.8903,-24.53388 -15.2123,-27.00718 l 38.1035,-79.29114 z m -36.2729,60.3894 c 1.8353,1.9276 1.7909,4.95182 -0.092,6.74447 -1.8828,1.79263 -4.8905,1.67445 -6.7258,-0.25316 -1.8353,-1.92761 -1.8059,-4.93751 0.077,-6.73014 1.8828,-1.79263 4.9056,-1.68878 6.7409,0.23883 z m 2.3261,31.6152 c 4.0743,4.27925 3.9081,11.05618 -0.3711,15.13057 -4.2793,4.07438 -11.0411,3.89386 -15.1155,-0.38541 -4.0744,-4.27925 -3.9232,-11.04186 0.356,-15.11624 4.2792,-4.07437 11.0562,-3.90817 15.1306,0.37108 z"
         style="fill:#5e2f64;fill-opacity:1;stroke:none"
         inkscape:connector-curvature="0" />
      <path
         id="path2987-9-71-8"
         d="m 600.72482,527.437 -12.1855,5.40426 c -2.9848,-19.12227 -28.1509,-23.07258 -36.8605,-9.14997 -13.8472,22.13536 9.3088,39.15219 27.0269,30.13375 3.5203,-1.79183 7.7186,-3.08584 11.8365,-5.55981 l 10.1826,-20.82823 z m -24.8261,0.59644 c 4.0744,4.27926 3.9232,11.04186 -0.356,15.11625 -4.2793,4.07439 -11.0562,3.90818 -15.1306,-0.37107 -4.0744,-4.27925 -3.9082,-11.0562 0.3711,-15.13058 4.2792,-4.07438 11.0411,-3.89385 15.1155,0.3854 z"
         style="fill:#5e2f64;fill-opacity:1;stroke:none"
         inkscape:connector-curvature="0" />
      <path
         sodipodi:nodetypes="cccc"
         inkscape:connector-curvature="0"
         id="path2991-2-8-6"
         d="m 626.32542,518.42009 -8.7913,18.47998 c 35.8387,-14.27741 42.0506,-24.66306 52.9513,-35.99978 z"
         style="fill:#8f5c43;fill-opacity:1;stroke:none" />
      <rect
         y="425.06268"
         x="610.8689"
         height="88.099937"
         width="70.101028"
         id="rect4247-5"
         style="fill:#f3a374;fill-opacity:1;fill-rule:evenodd;stroke:none" />
      <rect
         y="543.00293"
         x="634.07812"
         height="23.682779"
         width="20.840845"
         id="rect4249-48"
         style="fill:#f3a374;fill-opacity:1;fill-rule:evenodd;stroke:none" />
      <rect
         y="529.26691"
         x="660.60278"
         height="23.682779"
         width="20.840845"
         id="rect4249-4-6"
         style="fill:#f3a374;fill-opacity:1;fill-rule:evenodd;stroke:none" />
      <rect
         y="516.47821"
         x="687.12744"
         height="23.682779"
         width="20.840845"
         id="rect4249-45-9"
         style="fill:#f3a374;fill-opacity:1;fill-rule:evenodd;stroke:none" />
      <rect
         y="502.74219"
         x="713.65222"
         height="23.682779"
         width="20.840845"
         id="rect4249-5-9"
         style="fill:#f3a374;fill-opacity:1;fill-rule:evenodd;stroke:none" />
      <path
         style="fill:#5e2f64;fill-opacity:1;stroke:none"
         d="m 626.32542,518.42009 -8.7913,18.47998 c 35.8387,-14.27741 42.0506,-24.66306 52.9513,-35.99978 z"
         id="path4301-8"
         inkscape:connector-curvature="0"
         sodipodi:nodetypes="cccc" />
    </g>
  </g>
</svg>
