<?xml version="1.0" encoding="UTF-8" standalone="no"?>
<!-- Created with Inkscape (http://www.inkscape.org/) -->

<svg
   xmlns:dc="http://purl.org/dc/elements/1.1/"
   xmlns:cc="http://creativecommons.org/ns#"
   xmlns:rdf="http://www.w3.org/1999/02/22-rdf-syntax-ns#"
   xmlns:svg="http://www.w3.org/2000/svg"
   xmlns="http://www.w3.org/2000/svg"
   xmlns:sodipodi="http://sodipodi.sourceforge.net/DTD/sodipodi-0.dtd"
   xmlns:inkscape="http://www.inkscape.org/namespaces/inkscape"
   width="30"
   height="30"
   id="svg3340"
   version="1.1"
   inkscape:version="0.48.3.1 r9886"
   sodipodi:docname="Nuovo documento 9">
  <defs
     id="defs3342" />
  <sodipodi:namedview
     id="base"
     pagecolor="#ffffff"
     bordercolor="#666666"
     borderopacity="1.0"
     inkscape:pageopacity="0.0"
     inkscape:pageshadow="2"
     inkscape:zoom="11.2"
     inkscape:cx="29.80361"
     inkscape:cy="12.176761"
     inkscape:document-units="px"
     inkscape:current-layer="layer1"
     showgrid="false"
     inkscape:window-width="1366"
     inkscape:window-height="692"
     inkscape:window-x="0"
     inkscape:window-y="24"
     inkscape:window-maximized="1" />
  <metadata
     id="metadata3345">
    <rdf:RDF>
      <cc:Work
         rdf:about="">
        <dc:format>image/svg+xml</dc:format>
        <dc:type
           rdf:resource="http://purl.org/dc/dcmitype/StillImage" />
        <dc:title></dc:title>
      </cc:Work>
    </rdf:RDF>
  </metadata>
  <g
     inkscape:label="Livello 1"
     inkscape:groupmode="layer"
     id="layer1"
     transform="translate(0,-1022.3622)">
    <g
       transform="matrix(0.15789472,0,0,0.15789472,-42.252599,959.293)"
       id="g4222">
      <g
         id="g4625-5-1-6-7-8"
         transform="matrix(0.45517866,0.47806609,-0.47806609,0.45517866,332.34454,361.31841)"
         style="fill:#bdda59;fill-opacity:1">
        <path
           inkscape:connector-curvature="0"
           style="fill:#bdda59;fill-opacity:1;stroke:none"
           d="m 144.4626,162.37154 -6.75,18.875 c -23.92085,-16.57815 -54.319055,6.73373 -48.187495,30.65625 9.74849,38.03407 52.292935,30.46067 60.843745,1.8125 1.69891,-5.69194 4.64309,-11.60614 6.21875,-18.65625 l -12.125,-32.6875 z m -25.09375,27.65625 c 8.88541,0 16.09375,7.17709 16.09375,16.0625 0,8.88541 -7.20834,16.09375 -16.09375,16.09375 -8.88541,0 -16.09375,-7.20834 -16.09375,-16.09375 0,-8.88541 7.20834,-16.0625 16.09375,-16.0625 z"
           id="path2987-0-7-2-6-6" />
        <path
           style="fill:#bdda59;fill-opacity:1;stroke:none"
           d="m 161.18896,125.1401 11.01016,28.73731 c 21.61351,-53.83641 16.7441,-71.371177 15.70081,-94.998517 z"
           id="path2991-5-1-8-4-5"
           inkscape:connector-curvature="0"
           sodipodi:nodetypes="cccc" />
      </g>
      <path
         sodipodi:nodetypes="ccccccccccccccccccccccccccccccc"
         inkscape:connector-curvature="0"
         id="path4040-0-7"
         d="m 341.90895,405.38466 0,31.55205 10.51736,0 c 0,-0.0144 0,141.98428 0,141.98428 l 68.3628,0 0,10.51736 31.55204,0 0,-31.55207 -31.55204,0 0,10.51736 -57.84545,0 0,-36.81074 57.84545,0 0,10.51736 31.55204,0 0,-31.55207 -31.55204,0 0,10.51736 -57.84545,0 0,-36.81075 57.84545,0 0,10.51736 31.55204,0 0,-31.55206 -31.55204,0 0,10.51736 -57.84545,0 0,-36.81075 10.51736,0 0,-31.55205 z"
         style="fill:#bdda59;fill-opacity:1;stroke:none" />
      <path
         sodipodi:nodetypes="ccccccccccccccccccccccccccccccc"
         inkscape:connector-curvature="0"
         id="path4040-0"
         d="m 347.16763,400.12598 0,31.55206 10.51736,0 c 0,-0.0144 0,141.98428 0,141.98428 l 68.3628,0 0,10.51735 31.55206,0 0,-31.55205 -31.55206,0 0,10.51734 -57.84545,0 0,-36.81073 57.84545,0 0,10.51735 31.55206,0 0,-31.55206 -31.55206,0 0,10.51735 -57.84545,0 0,-36.81073 57.84545,0 0,10.51734 31.55206,0 0,-31.55205 -31.55206,0 0,10.51735 -57.84545,0 0,-36.81074 10.51736,0 0,-31.55206 z"
         style="fill:#777892;fill-opacity:1;stroke:none" />
      <path
         id="path2989-3-3-0-7-7-0"
         d="m 365.20774,450.90442 c -8.58025,7.14316 -17.9634,9.98406 -28.55747,28.10172 -14.12046,24.14835 -21.63814,41.05128 -31.73446,61.85969 -11.75571,24.22838 26.71823,42.93948 37.56896,15.55584 5.05202,-12.74961 -1.8764,-24.3536 -15.1005,-26.80871 l 37.82347,-78.70854 z m -36.00639,59.94566 c 1.82184,1.91344 1.7777,4.91545 -0.0912,6.6949 -1.86893,1.77947 -4.85455,1.66217 -6.67638,-0.25127 -1.82183,-1.91344 -1.79264,-4.90121 0.0762,-6.68068 1.86894,-1.77947 4.8695,-1.67639 6.69133,0.23705 z m 2.30899,31.3829 c 4.04445,4.24781 3.87947,10.97497 -0.36834,15.01942 -4.24782,4.04445 -10.96002,3.86524 -15.00448,-0.38257 -4.04444,-4.24781 -3.8944,-10.96074 0.35342,-15.00518 4.24781,-4.04445 10.97495,-3.87948 15.0194,0.36833 z"
         style="fill:#bdda59;fill-opacity:1;stroke:none"
         inkscape:connector-curvature="0" />
      <g
         transform="matrix(1.0517355,0,0,1.0517355,-606.09424,71.248357)"
         id="g3948">
        <path
           inkscape:connector-curvature="0"
           style="fill:#f15e64;fill-opacity:1;stroke:none"
           d="m 926.3203,355.87631 c -8.1582,6.7918 -17.0797,9.49296 -27.1527,26.71938 -13.4258,22.96051 -20.5737,39.03198 -30.1734,58.8168 -11.1774,23.03659 25.404,40.82728 35.7209,14.79068 4.8035,-12.12248 -1.7841,-23.15566 -14.3577,-25.49002 l 35.9629,-74.83684 z m -34.2351,56.99693 c 1.7321,1.81931 1.6902,4.67365 -0.087,6.36559 -1.777,1.69192 -4.6158,1.58039 -6.348,-0.23893 -1.7322,-1.81933 -1.7044,-4.66014 0.072,-6.35207 1.777,-1.69192 4.63,-1.59391 6.3623,0.22541 z m 2.1953,29.83917 c 3.8455,4.03886 3.6887,10.43509 -0.3502,14.28059 -4.0388,3.8455 -10.4209,3.67511 -14.2664,-0.36376 -3.8455,-4.03886 -3.7028,-10.42156 0.3361,-14.26706 4.0388,-3.84549 10.4351,-3.68862 14.2805,0.35023 z"
           id="path2989-3-1-6-6-8" />
        <path
           inkscape:connector-curvature="0"
           style="fill:#f15e64;fill-opacity:1;stroke:none"
           d="m 883.7895,406.635 -11.501,5.10067 c -2.8171,-18.04805 -26.5694,-21.77644 -34.7898,-8.63596 -13.0693,20.89188 8.7859,36.95276 25.5086,28.44094 3.3226,-1.69116 7.2851,-2.91248 11.1716,-5.24747 l 9.6106,-19.65818 z m -23.4315,0.56294 c 3.8455,4.03886 3.7029,10.42157 -0.336,14.26707 -4.0388,3.8455 -10.4351,3.68863 -14.2806,-0.35023 -3.8455,-4.03885 -3.6886,-10.43509 0.3503,-14.28059 4.0388,-3.8455 10.4208,-3.67511 14.2663,0.36375 z"
           id="path2987-9-7-8-7" />
        <path
           style="fill:#f15e64;fill-opacity:1;stroke:none"
           d="m 907.952,398.12463 -8.2975,17.44184 c 33.8254,-13.47535 39.6884,-23.27757 49.9767,-33.97744 z"
           id="path2991-2-7-7-7"
           inkscape:connector-curvature="0"
           sodipodi:nodetypes="cccc" />
      </g>
      <path
         inkscape:connector-curvature="0"
         id="path3953"
         d="m 357.68499,479.00614 10.51735,0 0,-42.06943 -10.51735,0 z"
         style="fill:#777892;fill-opacity:1;stroke:none" />
    </g>
  </g>
</svg>
