<?xml version="1.0" encoding="UTF-8" standalone="no"?>
<!-- Created with Inkscape (http://www.inkscape.org/) -->

<svg
   xmlns:dc="http://purl.org/dc/elements/1.1/"
   xmlns:cc="http://creativecommons.org/ns#"
   xmlns:rdf="http://www.w3.org/1999/02/22-rdf-syntax-ns#"
   xmlns:svg="http://www.w3.org/2000/svg"
   xmlns="http://www.w3.org/2000/svg"
   xmlns:sodipodi="http://sodipodi.sourceforge.net/DTD/sodipodi-0.dtd"
   xmlns:inkscape="http://www.inkscape.org/namespaces/inkscape"
   width="744.09448819"
   height="1052.3622047"
   id="svg3034"
   version="1.1"
   inkscape:version="0.48.3.1 r9886"
   sodipodi:docname="log.svg">
  <defs
     id="defs3036" />
  <sodipodi:namedview
     id="base"
     pagecolor="#ffffff"
     bordercolor="#666666"
     borderopacity="1.0"
     inkscape:pageopacity="0.0"
     inkscape:pageshadow="2"
     inkscape:zoom="1.979899"
     inkscape:cx="295.44236"
     inkscape:cy="402.8707"
     inkscape:document-units="px"
     inkscape:current-layer="layer1"
     showgrid="false"
     inkscape:window-width="1366"
     inkscape:window-height="692"
     inkscape:window-x="0"
     inkscape:window-y="156"
     inkscape:window-maximized="1" />
  <metadata
     id="metadata3039">
    <rdf:RDF>
      <cc:Work
         rdf:about="">
        <dc:format>image/svg+xml</dc:format>
        <dc:type
           rdf:resource="http://purl.org/dc/dcmitype/StillImage" />
        <dc:title></dc:title>
      </cc:Work>
    </rdf:RDF>
  </metadata>
  <g
     inkscape:label="Livello 1"
     inkscape:groupmode="layer"
     id="layer1">
    <path
       sodipodi:nodetypes="cccccsssssssssssssssssssssssss"
       inkscape:connector-curvature="0"
       id="path3761-45-0-7"
       d="m 242.95169,609.67281 0,27 23.14283,0 c 0,0 -0.18479,-19.79653 0,-27 z m 4.99002,2.89299 13.50014,0 c 1.92847,0 1.92847,1.92847 0,1.92847 l -13.50014,0 c -1.92847,0 -1.92847,-1.92847 0,-1.92847 z m 0,4.82133 13.50014,0 c 1.92847,0 1.92847,1.9286 0,1.9286 l -13.50014,0 c -1.92847,0 -1.92847,-1.9286 0,-1.9286 z m 0,4.8213 13.50014,0 c 1.92847,0 1.92847,1.92876 0,1.92876 l -13.50014,0 c -1.92847,0 -1.92847,-1.92876 0,-1.92876 z m 0,4.82146 13.50014,0 c 1.92847,0 1.92847,1.92867 0,1.92867 l -13.50014,0 c -1.92847,0 -1.92847,-1.92867 0,-1.92867 z m 0,4.82146 10.60715,0 c 1.92858,0 1.92858,1.92849 0,1.92849 l -10.60715,0 c -1.92847,0 -1.92847,-1.92849 0,-1.92849 z"
       style="fill:#4aa6b2;fill-opacity:1;stroke:none" />
  </g>
</svg>
