<?xml version="1.0" encoding="UTF-8" standalone="no"?>
<!-- Created with Inkscape (http://www.inkscape.org/) -->

<svg
   width="160"
   height="30"
   viewBox="0 0 42.333332 7.9374995"
   version="1.1"
   id="svg5"
   xmlns="http://www.w3.org/2000/svg"
   xmlns:svg="http://www.w3.org/2000/svg">
  <defs
     id="defs2" />
  <g
     id="layer1">
    <g
       aria-label="PDFsam"
       id="text5307"
       style="font-size:10.5833px;line-height:125%;font-family:FontAwesome;-inkscape-font-specification:FontAwesome;letter-spacing:0px;word-spacing:0px;stroke-width:0.264583px"
       transform="translate(-25.425679,-49.095181)">
      <path
         d="m 27.201471,56.815521 v -7.389706 h 3.307281 q 2.26342,0 2.26342,2.082554 0,2.258252 -3.095408,2.733674 l -0.19637,-1.21956 q 1.860346,-0.335896 1.860346,-1.472773 0,-0.919838 -0.919838,-0.919838 h -1.85001 v 6.185649 z"
         style="font-weight:bold;font-family:Sansation;-inkscape-font-specification:'Sansation, Bold'"
         id="path64368" />
      <path
         d="m 36.570378,55.626967 q 2.299594,0 2.299594,-2.707836 0,-2.304762 -2.299594,-2.304762 h -1.52445 v 5.012598 z m -2.893871,1.188554 v -7.389706 h 2.893871 q 3.669015,0 3.669015,3.493316 0,3.89639 -3.669015,3.89639 z"
         style="font-weight:bold;font-family:Sansation;-inkscape-font-specification:'Sansation, Bold'"
         id="path64370" />
      <path
         d="m 46.25451,49.425815 v 1.178219 h -3.493316 v 1.860345 h 3.317617 v 1.224728 h -3.333119 v 3.126414 h -1.343583 v -7.389706 z"
         style="font-weight:bold;font-family:Sansation;-inkscape-font-specification:'Sansation, Bold'"
         id="path64372" />
      <path
         d="m 47.288036,56.55714 v -1.136878 q 0.904334,0.361734 2.087721,0.361734 0.883664,0 0.883664,-0.568439 0,-0.542601 -0.594277,-0.542601 h -0.981849 q -1.653641,0 -1.653641,-1.627802 0,-1.705317 2.413282,-1.705317 1.02319,0 1.927525,0.310057 v 1.136878 q -0.904335,-0.361734 -1.963698,-0.361734 -1.11104,0 -1.11104,0.568439 0,0.542601 0.645953,0.542601 h 0.878497 q 1.808669,0 1.808669,1.627803 0,1.705317 -2.304761,1.705317 -1.131711,0 -2.036045,-0.310058 z"
         style="fill:#5e5e5e"
         id="path64374" />
      <path
         d="m 52.326472,55.125707 q 0,-1.617467 2.356438,-1.617467 0.552936,0 1.105872,0.103353 V 53.20335 q 0,-0.728635 -1.049028,-0.728635 -0.888832,0 -1.974034,0.258381 v -1.085202 q 1.085202,-0.258381 1.974034,-0.258381 2.418449,0 2.418449,1.787999 v 3.638009 h -0.795814 l -0.485757,-0.485757 q -0.707965,0.485757 -1.560624,0.485757 -1.989536,0 -1.989536,-1.689814 z m 3.46231,-0.583942 q -0.516763,-0.103352 -1.105872,-0.103352 -0.987017,0 -0.987017,0.671791 0,0.723468 0.82682,0.723468 0.682127,0 1.266069,-0.423745 z"
         style="fill:#5e5e5e"
         id="path64376" />
      <path
         d="m 58.450111,56.815521 v -5.426008 h 1.059363 l 0.160197,0.785479 q 0.728635,-0.785479 1.751825,-0.785479 1.02319,0 1.400427,0.744138 0.831988,-0.744138 1.74149,-0.744138 1.870681,0 1.870681,2.061883 v 3.364125 H 65.064673 V 53.39972 q 0,-0.904335 -0.816485,-0.904335 -0.60978,0 -1.173051,0.547769 v 3.772367 h -1.369422 v -3.400298 q 0,-0.919838 -0.754473,-0.919838 -0.599445,0 -1.13171,0.547769 v 3.772367 z"
         style="fill:#5e5e5e"
         id="path64378" />
    </g>
  </g>
</svg>
