<?xml version="1.0" encoding="UTF-8" standalone="no"?>
<!-- Created with Inkscape (http://www.inkscape.org/) -->

<svg
   width="400"
   height="180"
   viewBox="0 0 105.83334 47.625001"
   version="1.1"
   id="svg5"
   sodipodi:docname="splash.svg"
   inkscape:version="1.1.2 (0a00cf5339, 2022-02-04)"
   inkscape:export-filename="/home/torakiki/repos/pdfsam/pdfsam-docs/graphics/splash.png"
   inkscape:export-xdpi="96"
   inkscape:export-ydpi="96"
   xmlns:inkscape="http://www.inkscape.org/namespaces/inkscape"
   xmlns:sodipodi="http://sodipodi.sourceforge.net/DTD/sodipodi-0.dtd"
   xmlns="http://www.w3.org/2000/svg"
   xmlns:svg="http://www.w3.org/2000/svg">
  <sodipodi:namedview
     id="namedview19"
     pagecolor="#ffffff"
     bordercolor="#666666"
     borderopacity="1.0"
     inkscape:pageshadow="2"
     inkscape:pageopacity="0.0"
     inkscape:pagecheckerboard="0"
     showgrid="false"
     inkscape:zoom="2.0948038"
     inkscape:cx="311.00764"
     inkscape:cy="162.30637"
     inkscape:window-width="2560"
     inkscape:window-height="1412"
     inkscape:window-x="1920"
     inkscape:window-y="0"
     inkscape:window-maximized="1"
     inkscape:current-layer="layer1" />
  <defs
     id="defs2" />
  <g
     id="layer1">
    <rect
       style="fill:#ffffff;fill-opacity:1;stroke:#e1e1e1;stroke-width:0.563942;stroke-linecap:round;stroke-linejoin:round;stroke-miterlimit:4.1;stroke-dasharray:none;stroke-opacity:1"
       id="rect846"
       width="105.26919"
       height="46.995178"
       x="0.3313168"
       y="0.068647474" />
    <g
       id="g4193"
       transform="matrix(0.43813399,0,0,-0.44078468,-53.455714,5.4829519)">
      <path
         id="path94-4-8"
         style="fill:#009245;fill-opacity:1;fill-rule:nonzero;stroke:none"
         d="m 160.67531,-13.00891 c -5.3,0 -10.253,-1.485 -14.467,-4.061 -0.074,-0.045 -0.146,-0.093 -0.22,-0.139 19.42,-5.238 25.018,-14.206 25.704,-22.763 0.397,-4.955 -2.568,-7.454 -2.568,-7.454 9.194,0.829 19.103,9.878 19.103,9.878 0.035,0.06 -0.035,-0.062 0,0 -1.709,13.729 -12.911,24.539 -27.552,24.539" />
      <path
         id="path98-6-4"
         style="fill:#009245;fill-opacity:1;fill-rule:nonzero;stroke:none"
         d="m 136.54401,-54.83311 c 2.65,-4.59 6.412,-8.138 10.75,-10.498 0.076,-0.042 0.154,-0.08 0.23,-0.121 -5.173,19.436 -0.205,28.768 6.861,33.64 4.094,2.822 7.74,1.504 7.74,1.504 -5.314,7.548 -18.105,11.605 -18.105,11.605 -0.071,0 0.07,0 0,0 -11.037,-8.345 -14.796,-23.451 -7.476,-36.13" />
      <path
         id="path102-4-9"
         style="fill:#009245;fill-opacity:1;fill-rule:nonzero;stroke:none"
         d="m 184.81791,-54.58311 c 2.65,4.589 3.841,9.621 3.716,14.559 -9.6e-4,0.087 -0.008,0.172 -0.01,0.259 -14.246,-14.198 -24.811,-14.562 -32.564,-10.878 -4.491,2.133 -5.172,5.951 -5.172,5.951 -3.88,-8.377 -0.998,-21.482 -0.998,-21.482 0.035,-0.061 -0.035,0.061 0,0 12.745,-5.386 27.708,-1.089 35.028,11.591" />
      <path
         id="path126-6-1-80"
         style="fill:#fbb03b;fill-opacity:1;fill-rule:nonzero;stroke:none"
         d="m 159.54914,-39.906671 c 0.49837,0.629266 1.41337,0.735013 2.04262,0.236656 0.63014,-0.498823 0.73547,-1.414693 0.23708,-2.043958 -0.49839,-0.629238 -1.41469,-0.735467 -2.0435,-0.236197 -0.62925,0.498376 -0.73501,1.413365 -0.2362,2.043499 m 2.27244,-7.725881 c 4.09481,-1.338849 5.65676,0.0325 5.65676,0.0325 -2.30416,2.224235 -2.83554,2.813838 -2.29608,4.51947 1.07584,3.413184 1.14335,4.891382 0.7289,6.643324 -0.99179,4.192418 -2.85079,4.886005 -2.85079,4.886005 -0.81408,-3.094718 -0.96031,-3.784767 -2.76849,-4.235029 -3.47326,-0.890785 -4.74843,-1.481241 -6.07856,-2.67738 -3.20338,-2.880685 -2.79998,-4.939389 -2.79998,-4.939389 3.06995,0.90301 3.82024,1.033899 5.03572,-0.256937 1.77409,-1.908829 3.67224,-3.416634 5.37252,-3.97256 z" />
    </g>
    <g
       id="layer1-4"
       transform="matrix(1.6770035,0,0,1.6672608,31.139233,16.681209)">
      <g
         aria-label="PDFsam"
         id="text5307"
         style="font-size:10.5833px;line-height:125%;font-family:FontAwesome;-inkscape-font-specification:FontAwesome;letter-spacing:0px;word-spacing:0px;stroke-width:0.264583px"
         transform="translate(-25.425679,-49.095181)">
        <path
           d="m 27.201471,56.815521 v -7.389706 h 3.307281 q 2.26342,0 2.26342,2.082554 0,2.258252 -3.095408,2.733674 l -0.19637,-1.21956 q 1.860346,-0.335896 1.860346,-1.472773 0,-0.919838 -0.919838,-0.919838 h -1.85001 v 6.185649 z"
           style="font-weight:bold;font-family:Sansation;-inkscape-font-specification:'Sansation, Bold'"
           id="path64368" />
        <path
           d="m 36.570378,55.626967 q 2.299594,0 2.299594,-2.707836 0,-2.304762 -2.299594,-2.304762 h -1.52445 v 5.012598 z m -2.893871,1.188554 v -7.389706 h 2.893871 q 3.669015,0 3.669015,3.493316 0,3.89639 -3.669015,3.89639 z"
           style="font-weight:bold;font-family:Sansation;-inkscape-font-specification:'Sansation, Bold'"
           id="path64370" />
        <path
           d="m 46.25451,49.425815 v 1.178219 h -3.493316 v 1.860345 h 3.317617 v 1.224728 h -3.333119 v 3.126414 h -1.343583 v -7.389706 z"
           style="font-weight:bold;font-family:Sansation;-inkscape-font-specification:'Sansation, Bold'"
           id="path64372" />
        <path
           d="m 47.288036,56.55714 v -1.136878 q 0.904334,0.361734 2.087721,0.361734 0.883664,0 0.883664,-0.568439 0,-0.542601 -0.594277,-0.542601 h -0.981849 q -1.653641,0 -1.653641,-1.627802 0,-1.705317 2.413282,-1.705317 1.02319,0 1.927525,0.310057 v 1.136878 q -0.904335,-0.361734 -1.963698,-0.361734 -1.11104,0 -1.11104,0.568439 0,0.542601 0.645953,0.542601 h 0.878497 q 1.808669,0 1.808669,1.627803 0,1.705317 -2.304761,1.705317 -1.131711,0 -2.036045,-0.310058 z"
           style="fill:#5e5e5e"
           id="path64374" />
        <path
           d="m 52.326472,55.125707 q 0,-1.617467 2.356438,-1.617467 0.552936,0 1.105872,0.103353 V 53.20335 q 0,-0.728635 -1.049028,-0.728635 -0.888832,0 -1.974034,0.258381 v -1.085202 q 1.085202,-0.258381 1.974034,-0.258381 2.418449,0 2.418449,1.787999 v 3.638009 h -0.795814 l -0.485757,-0.485757 q -0.707965,0.485757 -1.560624,0.485757 -1.989536,0 -1.989536,-1.689814 z m 3.46231,-0.583942 q -0.516763,-0.103352 -1.105872,-0.103352 -0.987017,0 -0.987017,0.671791 0,0.723468 0.82682,0.723468 0.682127,0 1.266069,-0.423745 z"
           style="fill:#5e5e5e"
           id="path64376" />
        <path
           d="m 58.450111,56.815521 v -5.426008 h 1.059363 l 0.160197,0.785479 q 0.728635,-0.785479 1.751825,-0.785479 1.02319,0 1.400427,0.744138 0.831988,-0.744138 1.74149,-0.744138 1.870681,0 1.870681,2.061883 v 3.364125 H 65.064673 V 53.39972 q 0,-0.904335 -0.816485,-0.904335 -0.60978,0 -1.173051,0.547769 v 3.772367 h -1.369422 v -3.400298 q 0,-0.919838 -0.754473,-0.919838 -0.599445,0 -1.13171,0.547769 v 3.772367 z"
           style="fill:#5e5e5e"
           id="path64378" />
      </g>
    </g>
  </g>
</svg>
